<?xml version="1.0" encoding="utf-8"?>
<!-- Generator: Adobe Illustrator 19.0.0, SVG Export Plug-In . SVG Version: 6.00 Build 0)  -->
<svg version="1.1" id="Layer_1" xmlns="http://www.w3.org/2000/svg" xmlns:xlink="http://www.w3.org/1999/xlink" x="0px" y="0px"
	 viewBox="0 0 500 500" style="enable-background:new 0 0 500 500;" xml:space="preserve">
<style type="text/css">
	.st0{fill:#CDC092;}
	.st1{fill:#540115;}
</style>
<g id="XMLID_20_">
	<path id="XMLID_38_" class="st0" d="M278,262.5V302h-9.9c0,0-1.7-35.8-30.1-37v79.4c0,0,119.8,19.9,115.1-41.1
		C353.1,303.3,355,257.8,278,262.5 M245.8,336.9V276c16.3,4.9,14.9,34.6,14.9,34.6h25.9v-40.7c61.2-3.4,59.2,34.5,59.2,34.5
		C348.8,353.8,245.8,336.9,245.8,336.9z"/>
	<path id="XMLID_41_" class="st0" d="M151,187.3c0,32.1,41.9,33.3,41.9,33.3v-67.8C151,157.7,151,187.3,151,187.3 M184.2,162.6v49.3
		c-28.4-4.9-24.7-25.9-24.7-25.9C160.8,167.6,184.2,162.6,184.2,162.6z"/>
	<path id="XMLID_44_" class="st0" d="M286.4,213.2v-37.1h-27.2c1.9,31-13.4,34.6-13.4,34.6l0.1-48.1c57.2,4.6,92.5,49.3,92.5,49.3
		l26.6-14.1l-58.4-74l-20.9,6c-15-5.4-37.4-6.7-37.4-6.7h66.6l81.7,58.7l21.4-23l-80.9-91.4L326,73.8H108.8v30.8
		c51.7-1.1,73,16,73,16c-77.7,6.2-74,76.4-74,76.4c4.9,70.3,76.4,74,76.4,74v56.2c-30.8-3.7-75.2-58.7-75.2-58.7l-27.1,19.7
		l77.7,96.2c13.6-7.4,24.9-8.5,24.9-8.5c0.7,35.4-41.3,30.8-41.3,30.8l0,25.6h148.7v-25.6c-41.2,2.7-44.7-28.2-44.7-28.2
		c48.6,6,87.5-1,87.5-1c90.9-21.3,63.8-104.4,63.8-104.4C379.2,211.4,286.4,213.2,286.4,213.2 M349.5,366.1c0,0-28.8,14.6-111.4,4.8
		c0,0-0.8,42.1,44.9,43.3v11.1H152.2v-11.1c0,0,43.6,3.7,40.7-46.7c0,0-17.4,0.7-30.6,7.1l-68-83.6l13.4-10.1
		c0,0,46.1,56.2,85.2,58.2v-75.2c0,0-72.8-2.5-75.2-69.1c0,0-4.9-63.4,75.2-65.9v-9.3c0,0-19.9-22.4-75.4-22.4V82.5h211.1l7.4-3.7
		l71.1,78.8l-12.3,13.1l-76-54.9h-80.1v13.9c0,0,21.5,0.5,46.9,8.9l17.3-5.6l49.3,61.6l-11.5,6.1c0,0-41.6-44.3-102-48V223
		c0,0,28.9-2.1,28.4-38.2h11.1l0,37c0,0,97.4-6.2,113.4,55.5C391.4,277.3,413.6,340.2,349.5,366.1z"/>
	<path id="XMLID_49_" class="st1" d="M278,221.8l0-37h-11.1c0.5,36.1-28.4,38.2-28.4,38.2v-70.3c60.4,3.7,102,48,102,48l11.5-6.1
		L302.6,133l-17.3,5.6c-25.4-8.3-46.9-8.9-46.9-8.9v-13.9h80.1l76,54.9l12.3-13.1l-71.1-78.8l-7.4,3.7H117.5v14.6
		c55.5,0,75.4,22.4,75.4,22.4v9.3c-80.1,2.5-75.2,65.9-75.2,65.9c2.5,66.6,75.2,69.1,75.2,69.1v75.2c-39.2-2-85.2-58.2-85.2-58.2
		l-13.4,10.1l68,83.6c13.2-6.3,30.6-7.1,30.6-7.1c2.9,50.4-40.7,46.7-40.7,46.7v11.1h130.7v-11.1c-45.6-1.2-44.9-43.3-44.9-43.3
		c82.6,9.9,111.4-4.8,111.4-4.8c64.1-25.9,41.9-88.8,41.9-88.8C375.4,215.6,278,221.8,278,221.8 M192.9,220.6
		c0,0-41.9-1.2-41.9-33.3c0,0,0-29.6,41.9-34.5V220.6 M238,344.4V265c28.4,1.2,30.1,37,30.1,37h9.9v-39.5
		c77.1-4.7,75.1,40.8,75.1,40.8C357.9,364.3,238,344.4,238,344.4z"/>
	<polygon id="XMLID_50_" class="st1" points="302,420.9 305.9,420.9 305.9,432.5 307.3,432.5 307.3,420.9 311.3,420.9 311.3,419.5 
		302,419.5 	"/>
	<polygon id="XMLID_54_" class="st1" points="318.7,430.1 315.4,419.5 313.2,419.5 313.2,432.5 314.6,432.5 314.6,421.5 318,432.5 
		319.4,432.5 322.9,421.5 322.9,432.5 324.3,432.5 324.3,419.5 322.1,419.5 	"/>
</g>
</svg>
